<?xml version="1.0" encoding="UTF-8" standalone="no"?>
<!DOCTYPE svg PUBLIC "-//W3C//DTD SVG 1.1//EN"
 "http://www.w3.org/Graphics/SVG/1.1/DTD/svg11.dtd">
<!-- Generated by graphviz version 14.1.3 (20260303.0454)
 -->
<!-- Pages: 1 -->
<svg width="189pt" height="132pt"
 viewBox="0.00 0.00 189.00 132.00" xmlns="http://www.w3.org/2000/svg" xmlns:xlink="http://www.w3.org/1999/xlink">
<g id="graph0" class="graph" transform="scale(1 1) rotate(0) translate(4 128)">
<polygon fill="white" stroke="none" points="-4,4 -4,-128 185,-128 185,4 -4,4"/>
<g id="clust3" class="cluster">
<title>cluster_associated</title>
</g>
<!-- FinancialService -->
<g id="node1" class="node">
<title>FinancialService</title>
<g id="a_node1"><a xlink:href="../FinancialService" xlink:title="&lt;TABLE&gt;">
<polygon fill="lightgray" stroke="none" points="1,-97.88 1,-114.12 93,-114.12 93,-97.88 1,-97.88"/>
<text xml:space="preserve" text-anchor="start" x="2" y="-101.88" font-family="Arial" font-size="12.00">FinancialService</text>
<polygon fill="none" stroke="black" points="0,-96.88 0,-115.12 94,-115.12 94,-96.88 0,-96.88"/>
</a>
</g>
</g>
<!-- AutomatedTeller -->
<g id="node2" class="node">
<title>AutomatedTeller</title>
<g id="a_node2"><a xlink:href="../AutomatedTeller" xlink:title="&lt;TABLE&gt;">
<polygon fill="lightgray" stroke="none" points="2.5,-25.88 2.5,-42.12 91.5,-42.12 91.5,-25.88 2.5,-25.88"/>
<text xml:space="preserve" text-anchor="start" x="3.5" y="-29.88" font-family="Arial" font-size="12.00">AutomatedTeller</text>
<polygon fill="none" stroke="black" points="1.5,-24.88 1.5,-43.12 92.5,-43.12 92.5,-24.88 1.5,-24.88"/>
</a>
</g>
</g>
<!-- AutomatedTeller&#45;&gt;FinancialService -->
<g id="edge1" class="edge">
<title>AutomatedTeller&#45;&gt;FinancialService</title>
<path fill="none" stroke="black" d="M47,-51.79C47,-59.25 47,-68.24 47,-76.69"/>
<polygon fill="none" stroke="black" points="43.5,-76.54 47,-86.54 50.5,-76.54 43.5,-76.54"/>
</g>
<!-- Invis -->
</g>
</svg>
