<?xml version="1.0" encoding="UTF-8" standalone="no"?>
<!DOCTYPE svg PUBLIC "-//W3C//DTD SVG 1.1//EN"
 "http://www.w3.org/Graphics/SVG/1.1/DTD/svg11.dtd">
<!-- Generated by graphviz version 14.1.3 (20260303.0454)
 -->
<!-- Pages: 1 -->
<svg width="251pt" height="132pt"
 viewBox="0.00 0.00 251.00 132.00" xmlns="http://www.w3.org/2000/svg" xmlns:xlink="http://www.w3.org/1999/xlink">
<g id="graph0" class="graph" transform="scale(1 1) rotate(0) translate(4 128)">
<polygon fill="white" stroke="none" points="-4,4 -4,-128 246.5,-128 246.5,4 -4,4"/>
<g id="clust3" class="cluster">
<title>cluster_associated</title>
</g>
<!-- CivicStructure -->
<g id="node1" class="node">
<title>CivicStructure</title>
<g id="a_node1"><a xlink:href="../CivicStructure" xlink:title="&lt;TABLE&gt;">
<polygon fill="lightgray" stroke="none" points="1,-97.88 1,-114.12 78,-114.12 78,-97.88 1,-97.88"/>
<text xml:space="preserve" text-anchor="start" x="2" y="-101.88" font-family="Arial" font-size="12.00">CivicStructure</text>
<polygon fill="none" stroke="black" points="0,-96.88 0,-115.12 79,-115.12 79,-96.88 0,-96.88"/>
</a>
</g>
</g>
<!-- Organization -->
<g id="node2" class="node">
<title>Organization</title>
<g id="a_node2"><a xlink:href="../Organization" xlink:title="&lt;TABLE&gt;">
<polygon fill="lightgray" stroke="none" points="98.38,-97.88 98.38,-114.12 168.62,-114.12 168.62,-97.88 98.38,-97.88"/>
<text xml:space="preserve" text-anchor="start" x="99.38" y="-101.88" font-family="Arial" font-size="12.00">Organization</text>
<polygon fill="none" stroke="black" points="97.38,-96.88 97.38,-115.12 169.62,-115.12 169.62,-96.88 97.38,-96.88"/>
</a>
</g>
</g>
<!-- EducationalOrganization -->
<g id="node3" class="node">
<title>EducationalOrganization</title>
<g id="a_node3"><a xlink:href="../EducationalOrganization" xlink:title="&lt;TABLE&gt;">
<polygon fill="lightgray" stroke="none" points="19.5,-25.88 19.5,-42.12 153.5,-42.12 153.5,-25.88 19.5,-25.88"/>
<text xml:space="preserve" text-anchor="start" x="20.5" y="-29.88" font-family="Arial" font-size="12.00">EducationalOrganization</text>
<polygon fill="none" stroke="black" points="18.5,-24.88 18.5,-43.12 154.5,-43.12 154.5,-24.88 18.5,-24.88"/>
</a>
</g>
</g>
<!-- EducationalOrganization&#45;&gt;CivicStructure -->
<g id="edge1" class="edge">
<title>EducationalOrganization&#45;&gt;CivicStructure</title>
<path fill="none" stroke="black" d="M75.23,-51.79C69.82,-59.85 63.21,-69.69 57.15,-78.71"/>
<polygon fill="none" stroke="black" points="54.39,-76.55 51.72,-86.8 60.2,-80.45 54.39,-76.55"/>
</g>
<!-- EducationalOrganization&#45;&gt;Organization -->
<g id="edge2" class="edge">
<title>EducationalOrganization&#45;&gt;Organization</title>
<path fill="none" stroke="black" d="M97.77,-51.79C103.18,-59.85 109.79,-69.69 115.85,-78.71"/>
<polygon fill="none" stroke="black" points="112.8,-80.45 121.28,-86.8 118.61,-76.55 112.8,-80.45"/>
</g>
<!-- Invis -->
</g>
</svg>
