<?xml version="1.0" encoding="UTF-8" standalone="no"?>
<!DOCTYPE svg PUBLIC "-//W3C//DTD SVG 1.1//EN"
 "http://www.w3.org/Graphics/SVG/1.1/DTD/svg11.dtd">
<!-- Generated by graphviz version 14.1.3 (20260303.0454)
 -->
<!-- Pages: 1 -->
<svg width="150pt" height="132pt"
 viewBox="0.00 0.00 150.00 132.00" xmlns="http://www.w3.org/2000/svg" xmlns:xlink="http://www.w3.org/1999/xlink">
<g id="graph0" class="graph" transform="scale(1 1) rotate(0) translate(4 128)">
<polygon fill="white" stroke="none" points="-4,4 -4,-128 146.12,-128 146.12,4 -4,4"/>
<g id="clust3" class="cluster">
<title>cluster_associated</title>
</g>
<!-- Place -->
<g id="node1" class="node">
<title>Place</title>
<g id="a_node1"><a xlink:href="../Place" xlink:title="&lt;TABLE&gt;">
<polygon fill="lightgray" stroke="none" points="10.75,-97.88 10.75,-114.12 43.5,-114.12 43.5,-97.88 10.75,-97.88"/>
<text xml:space="preserve" text-anchor="start" x="11.75" y="-101.88" font-family="Arial" font-size="12.00">Place</text>
<polygon fill="none" stroke="black" points="9.75,-96.88 9.75,-115.12 44.5,-115.12 44.5,-96.88 9.75,-96.88"/>
</a>
</g>
</g>
<!-- Landform -->
<g id="node2" class="node">
<title>Landform</title>
<g id="a_node2"><a xlink:href="../Landform" xlink:title="&lt;TABLE&gt;">
<polygon fill="lightgray" stroke="none" points="1,-25.88 1,-42.12 53.25,-42.12 53.25,-25.88 1,-25.88"/>
<text xml:space="preserve" text-anchor="start" x="2" y="-29.88" font-family="Arial" font-size="12.00">Landform</text>
<polygon fill="none" stroke="black" points="0,-24.88 0,-43.12 54.25,-43.12 54.25,-24.88 0,-24.88"/>
</a>
</g>
</g>
<!-- Landform&#45;&gt;Place -->
<g id="edge1" class="edge">
<title>Landform&#45;&gt;Place</title>
<path fill="none" stroke="black" d="M27.12,-51.79C27.12,-59.25 27.12,-68.24 27.12,-76.69"/>
<polygon fill="none" stroke="black" points="23.63,-76.54 27.13,-86.54 30.63,-76.54 23.63,-76.54"/>
</g>
<!-- Invis -->
</g>
</svg>
