<?xml version="1.0" encoding="UTF-8" standalone="no"?>
<!DOCTYPE svg PUBLIC "-//W3C//DTD SVG 1.1//EN"
 "http://www.w3.org/Graphics/SVG/1.1/DTD/svg11.dtd">
<!-- Generated by graphviz version 14.1.3 (20260303.0454)
 -->
<!-- Pages: 1 -->
<svg width="226pt" height="132pt"
 viewBox="0.00 0.00 226.00 132.00" xmlns="http://www.w3.org/2000/svg" xmlns:xlink="http://www.w3.org/1999/xlink">
<g id="graph0" class="graph" transform="scale(1 1) rotate(0) translate(4 128)">
<polygon fill="white" stroke="none" points="-4,4 -4,-128 222,-128 222,4 -4,4"/>
<g id="clust3" class="cluster">
<title>cluster_associated</title>
</g>
<!-- ScholarlyArticle -->
<g id="node1" class="node">
<title>ScholarlyArticle</title>
<g id="a_node1"><a xlink:href="../ScholarlyArticle" xlink:title="&lt;TABLE&gt;">
<polygon fill="lightgray" stroke="none" points="22,-97.88 22,-114.12 108,-114.12 108,-97.88 22,-97.88"/>
<text xml:space="preserve" text-anchor="start" x="23" y="-101.88" font-family="Arial" font-size="12.00">ScholarlyArticle</text>
<polygon fill="none" stroke="black" points="21,-96.88 21,-115.12 109,-115.12 109,-96.88 21,-96.88"/>
</a>
</g>
</g>
<!-- MedicalScholarlyArticle -->
<g id="node2" class="node">
<title>MedicalScholarlyArticle</title>
<g id="a_node2"><a xlink:href="../MedicalScholarlyArticle" xlink:title="&lt;TABLE&gt;">
<polygon fill="lightgray" stroke="none" points="1,-25.88 1,-42.12 129,-42.12 129,-25.88 1,-25.88"/>
<text xml:space="preserve" text-anchor="start" x="2" y="-29.88" font-family="Arial" font-size="12.00">MedicalScholarlyArticle</text>
<polygon fill="none" stroke="black" points="0,-24.88 0,-43.12 130,-43.12 130,-24.88 0,-24.88"/>
</a>
</g>
</g>
<!-- MedicalScholarlyArticle&#45;&gt;ScholarlyArticle -->
<g id="edge1" class="edge">
<title>MedicalScholarlyArticle&#45;&gt;ScholarlyArticle</title>
<path fill="none" stroke="black" d="M65,-51.79C65,-59.25 65,-68.24 65,-76.69"/>
<polygon fill="none" stroke="black" points="61.5,-76.54 65,-86.54 68.5,-76.54 61.5,-76.54"/>
</g>
<!-- Invis -->
</g>
</svg>
