<?xml version="1.0" encoding="UTF-8" standalone="no"?>
<!DOCTYPE svg PUBLIC "-//W3C//DTD SVG 1.1//EN"
 "http://www.w3.org/Graphics/SVG/1.1/DTD/svg11.dtd">
<!-- Generated by graphviz version 14.1.3 (20260303.0454)
 -->
<!-- Pages: 1 -->
<svg width="230pt" height="132pt"
 viewBox="0.00 0.00 230.00 132.00" xmlns="http://www.w3.org/2000/svg" xmlns:xlink="http://www.w3.org/1999/xlink">
<g id="graph0" class="graph" transform="scale(1 1) rotate(0) translate(4 128)">
<polygon fill="white" stroke="none" points="-4,4 -4,-128 225.88,-128 225.88,4 -4,4"/>
<g id="clust3" class="cluster">
<title>cluster_associated</title>
</g>
<!-- MedicalCondition -->
<g id="node1" class="node">
<title>MedicalCondition</title>
<g id="a_node1"><a xlink:href="../MedicalCondition" xlink:title="&lt;TABLE&gt;">
<polygon fill="lightgray" stroke="none" points="19,-97.88 19,-114.12 114.75,-114.12 114.75,-97.88 19,-97.88"/>
<text xml:space="preserve" text-anchor="start" x="20" y="-101.88" font-family="Arial" font-size="12.00">MedicalCondition</text>
<polygon fill="none" stroke="black" points="18,-96.88 18,-115.12 115.75,-115.12 115.75,-96.88 18,-96.88"/>
</a>
</g>
</g>
<!-- MedicalSignOrSymptom -->
<g id="node2" class="node">
<title>MedicalSignOrSymptom</title>
<g id="a_node2"><a xlink:href="../MedicalSignOrSymptom" xlink:title="&lt;TABLE&gt;">
<polygon fill="lightgray" stroke="none" points="1,-25.88 1,-42.12 132.75,-42.12 132.75,-25.88 1,-25.88"/>
<text xml:space="preserve" text-anchor="start" x="2" y="-29.88" font-family="Arial" font-size="12.00">MedicalSignOrSymptom</text>
<polygon fill="none" stroke="black" points="0,-24.88 0,-43.12 133.75,-43.12 133.75,-24.88 0,-24.88"/>
</a>
</g>
</g>
<!-- MedicalSignOrSymptom&#45;&gt;MedicalCondition -->
<g id="edge1" class="edge">
<title>MedicalSignOrSymptom&#45;&gt;MedicalCondition</title>
<path fill="none" stroke="black" d="M66.88,-51.79C66.88,-59.25 66.88,-68.24 66.88,-76.69"/>
<polygon fill="none" stroke="black" points="63.38,-76.54 66.88,-86.54 70.38,-76.54 63.38,-76.54"/>
</g>
<!-- Invis -->
</g>
</svg>
