<?xml version="1.0" encoding="UTF-8" standalone="no"?>
<!DOCTYPE svg PUBLIC "-//W3C//DTD SVG 1.1//EN"
 "http://www.w3.org/Graphics/SVG/1.1/DTD/svg11.dtd">
<!-- Generated by graphviz version 14.1.3 (20260303.0454)
 -->
<!-- Pages: 1 -->
<svg width="178pt" height="132pt"
 viewBox="0.00 0.00 178.00 132.00" xmlns="http://www.w3.org/2000/svg" xmlns:xlink="http://www.w3.org/1999/xlink">
<g id="graph0" class="graph" transform="scale(1 1) rotate(0) translate(4 128)">
<polygon fill="white" stroke="none" points="-4,4 -4,-128 174.38,-128 174.38,4 -4,4"/>
<g id="clust3" class="cluster">
<title>cluster_associated</title>
</g>
<!-- Grant -->
<g id="node1" class="node">
<title>Grant</title>
<g id="a_node1"><a xlink:href="../Grant" xlink:title="&lt;TABLE&gt;">
<polygon fill="lightgray" stroke="none" points="25.75,-97.88 25.75,-114.12 57,-114.12 57,-97.88 25.75,-97.88"/>
<text xml:space="preserve" text-anchor="start" x="26.75" y="-101.88" font-family="Arial" font-size="12.00">Grant</text>
<polygon fill="none" stroke="black" points="24.75,-96.88 24.75,-115.12 58,-115.12 58,-96.88 24.75,-96.88"/>
</a>
</g>
</g>
<!-- MonetaryGrant -->
<g id="node2" class="node">
<title>MonetaryGrant</title>
<g id="a_node2"><a xlink:href="../MonetaryGrant" xlink:title="&lt;TABLE&gt;">
<polygon fill="lightgray" stroke="none" points="1,-25.88 1,-42.12 81.75,-42.12 81.75,-25.88 1,-25.88"/>
<text xml:space="preserve" text-anchor="start" x="2" y="-29.88" font-family="Arial" font-size="12.00">MonetaryGrant</text>
<polygon fill="none" stroke="black" points="0,-24.88 0,-43.12 82.75,-43.12 82.75,-24.88 0,-24.88"/>
</a>
</g>
</g>
<!-- MonetaryGrant&#45;&gt;Grant -->
<g id="edge1" class="edge">
<title>MonetaryGrant&#45;&gt;Grant</title>
<path fill="none" stroke="black" d="M41.38,-51.79C41.38,-59.25 41.38,-68.24 41.38,-76.69"/>
<polygon fill="none" stroke="black" points="37.88,-76.54 41.38,-86.54 44.88,-76.54 37.88,-76.54"/>
</g>
<!-- Invis -->
</g>
</svg>
