<?xml version="1.0" encoding="UTF-8" standalone="no"?>
<!DOCTYPE svg PUBLIC "-//W3C//DTD SVG 1.1//EN"
 "http://www.w3.org/Graphics/SVG/1.1/DTD/svg11.dtd">
<!-- Generated by graphviz version 14.1.3 (20260303.0454)
 -->
<!-- Pages: 1 -->
<svg width="196pt" height="132pt"
 viewBox="0.00 0.00 196.00 132.00" xmlns="http://www.w3.org/2000/svg" xmlns:xlink="http://www.w3.org/1999/xlink">
<g id="graph0" class="graph" transform="scale(1 1) rotate(0) translate(4 128)">
<polygon fill="white" stroke="none" points="-4,4 -4,-128 192,-128 192,4 -4,4"/>
<g id="clust3" class="cluster">
<title>cluster_associated</title>
</g>
<!-- CreateAction -->
<g id="node1" class="node">
<title>CreateAction</title>
<g id="a_node1"><a xlink:href="../CreateAction" xlink:title="&lt;TABLE&gt;">
<polygon fill="lightgray" stroke="none" points="14.12,-97.88 14.12,-114.12 85.88,-114.12 85.88,-97.88 14.12,-97.88"/>
<text xml:space="preserve" text-anchor="start" x="15.12" y="-101.88" font-family="Arial" font-size="12.00">CreateAction</text>
<polygon fill="none" stroke="black" points="13.12,-96.88 13.12,-115.12 86.88,-115.12 86.88,-96.88 13.12,-96.88"/>
</a>
</g>
</g>
<!-- PhotographAction -->
<g id="node2" class="node">
<title>PhotographAction</title>
<g id="a_node2"><a xlink:href="../PhotographAction" xlink:title="&lt;TABLE&gt;">
<polygon fill="lightgray" stroke="none" points="1,-25.88 1,-42.12 99,-42.12 99,-25.88 1,-25.88"/>
<text xml:space="preserve" text-anchor="start" x="2" y="-29.88" font-family="Arial" font-size="12.00">PhotographAction</text>
<polygon fill="none" stroke="black" points="0,-24.88 0,-43.12 100,-43.12 100,-24.88 0,-24.88"/>
</a>
</g>
</g>
<!-- PhotographAction&#45;&gt;CreateAction -->
<g id="edge1" class="edge">
<title>PhotographAction&#45;&gt;CreateAction</title>
<path fill="none" stroke="black" d="M50,-51.79C50,-59.25 50,-68.24 50,-76.69"/>
<polygon fill="none" stroke="black" points="46.5,-76.54 50,-86.54 53.5,-76.54 46.5,-76.54"/>
</g>
<!-- Invis -->
</g>
</svg>
