<?xml version="1.0" encoding="UTF-8" standalone="no"?>
<!DOCTYPE svg PUBLIC "-//W3C//DTD SVG 1.1//EN"
 "http://www.w3.org/Graphics/SVG/1.1/DTD/svg11.dtd">
<!-- Generated by graphviz version 14.1.3 (20260303.0454)
 -->
<!-- Pages: 1 -->
<svg width="163pt" height="132pt"
 viewBox="0.00 0.00 163.00 132.00" xmlns="http://www.w3.org/2000/svg" xmlns:xlink="http://www.w3.org/1999/xlink">
<g id="graph0" class="graph" transform="scale(1 1) rotate(0) translate(4 128)">
<polygon fill="white" stroke="none" points="-4,4 -4,-128 159.38,-128 159.38,4 -4,4"/>
<g id="clust3" class="cluster">
<title>cluster_associated</title>
</g>
<!-- CreativeWork -->
<g id="node1" class="node">
<title>CreativeWork</title>
<g id="a_node1"><a xlink:href="../CreativeWork" xlink:title="&lt;TABLE&gt;">
<polygon fill="lightgray" stroke="none" points="1,-97.88 1,-114.12 75.75,-114.12 75.75,-97.88 1,-97.88"/>
<text xml:space="preserve" text-anchor="start" x="2" y="-101.88" font-family="Arial" font-size="12.00">CreativeWork</text>
<polygon fill="none" stroke="black" points="0,-96.88 0,-115.12 76.75,-115.12 76.75,-96.88 0,-96.88"/>
</a>
</g>
</g>
<!-- Statement -->
<g id="node2" class="node">
<title>Statement</title>
<g id="a_node2"><a xlink:href="../Statement" xlink:title="&lt;TABLE&gt;">
<polygon fill="lightgray" stroke="none" points="10.38,-25.88 10.38,-42.12 66.38,-42.12 66.38,-25.88 10.38,-25.88"/>
<text xml:space="preserve" text-anchor="start" x="11.38" y="-29.88" font-family="Arial" font-size="12.00">Statement</text>
<polygon fill="none" stroke="black" points="9.38,-24.88 9.38,-43.12 67.38,-43.12 67.38,-24.88 9.38,-24.88"/>
</a>
</g>
</g>
<!-- Statement&#45;&gt;CreativeWork -->
<g id="edge1" class="edge">
<title>Statement&#45;&gt;CreativeWork</title>
<path fill="none" stroke="black" d="M38.38,-51.79C38.38,-59.25 38.38,-68.24 38.38,-76.69"/>
<polygon fill="none" stroke="black" points="34.88,-76.54 38.38,-86.54 41.88,-76.54 34.88,-76.54"/>
</g>
<!-- Invis -->
</g>
</svg>
