<?xml version="1.0" encoding="UTF-8" standalone="no"?>
<!DOCTYPE svg PUBLIC "-//W3C//DTD SVG 1.1//EN"
 "http://www.w3.org/Graphics/SVG/1.1/DTD/svg11.dtd">
<!-- Generated by graphviz version 14.1.3 (20260303.0454)
 -->
<!-- Pages: 1 -->
<svg width="196pt" height="132pt"
 viewBox="0.00 0.00 196.00 132.00" xmlns="http://www.w3.org/2000/svg" xmlns:xlink="http://www.w3.org/1999/xlink">
<g id="graph0" class="graph" transform="scale(1 1) rotate(0) translate(4 128)">
<polygon fill="white" stroke="none" points="-4,4 -4,-128 191.62,-128 191.62,4 -4,4"/>
<g id="clust3" class="cluster">
<title>cluster_associated</title>
</g>
<!-- SoftwareApplication -->
<g id="node1" class="node">
<title>SoftwareApplication</title>
<g id="a_node1"><a xlink:href="../SoftwareApplication" xlink:title="&lt;TABLE&gt;">
<polygon fill="lightgray" stroke="none" points="1,-97.88 1,-114.12 110.25,-114.12 110.25,-97.88 1,-97.88"/>
<text xml:space="preserve" text-anchor="start" x="2" y="-101.88" font-family="Arial" font-size="12.00">SoftwareApplication</text>
<polygon fill="none" stroke="black" points="0,-96.88 0,-115.12 111.25,-115.12 111.25,-96.88 0,-96.88"/>
</a>
</g>
</g>
<!-- WebApplication -->
<g id="node2" class="node">
<title>WebApplication</title>
<g id="a_node2"><a xlink:href="../WebApplication" xlink:title="&lt;TABLE&gt;">
<polygon fill="lightgray" stroke="none" points="12.25,-25.88 12.25,-42.12 99,-42.12 99,-25.88 12.25,-25.88"/>
<text xml:space="preserve" text-anchor="start" x="13.25" y="-29.88" font-family="Arial" font-size="12.00">WebApplication</text>
<polygon fill="none" stroke="black" points="11.25,-24.88 11.25,-43.12 100,-43.12 100,-24.88 11.25,-24.88"/>
</a>
</g>
</g>
<!-- WebApplication&#45;&gt;SoftwareApplication -->
<g id="edge1" class="edge">
<title>WebApplication&#45;&gt;SoftwareApplication</title>
<path fill="none" stroke="black" d="M55.62,-51.79C55.62,-59.25 55.62,-68.24 55.62,-76.69"/>
<polygon fill="none" stroke="black" points="52.13,-76.54 55.63,-86.54 59.13,-76.54 52.13,-76.54"/>
</g>
<!-- Invis -->
</g>
</svg>
