<?xml version="1.0" encoding="UTF-8" standalone="no"?>
<!DOCTYPE svg PUBLIC "-//W3C//DTD SVG 1.1//EN"
 "http://www.w3.org/Graphics/SVG/1.1/DTD/svg11.dtd">
<!-- Generated by graphviz version 14.1.3 (20260303.0454)
 -->
<!-- Pages: 1 -->
<svg width="172pt" height="132pt"
 viewBox="0.00 0.00 172.00 132.00" xmlns="http://www.w3.org/2000/svg" xmlns:xlink="http://www.w3.org/1999/xlink">
<g id="graph0" class="graph" transform="scale(1 1) rotate(0) translate(4 128)">
<polygon fill="white" stroke="none" points="-4,4 -4,-128 167.5,-128 167.5,4 -4,4"/>
<g id="clust3" class="cluster">
<title>cluster_associated</title>
</g>
<!-- LodgingBusiness -->
<g id="node1" class="node">
<title>LodgingBusiness</title>
<g id="a_node1"><a xlink:href="../LodgingBusiness" xlink:title="&lt;TABLE&gt;">
<polygon fill="lightgray" stroke="none" points="1,-97.88 1,-114.12 96,-114.12 96,-97.88 1,-97.88"/>
<text xml:space="preserve" text-anchor="start" x="2" y="-101.88" font-family="Arial" font-size="12.00">LodgingBusiness</text>
<polygon fill="none" stroke="black" points="0,-96.88 0,-115.12 97,-115.12 97,-96.88 0,-96.88"/>
</a>
</g>
</g>
<!-- Hostel -->
<g id="node2" class="node">
<title>Hostel</title>
<g id="a_node2"><a xlink:href="../Hostel" xlink:title="&lt;TABLE&gt;">
<polygon fill="lightgray" stroke="none" points="30.25,-25.88 30.25,-42.12 66.75,-42.12 66.75,-25.88 30.25,-25.88"/>
<text xml:space="preserve" text-anchor="start" x="31.25" y="-29.88" font-family="Arial" font-size="12.00">Hostel</text>
<polygon fill="none" stroke="black" points="29.25,-24.88 29.25,-43.12 67.75,-43.12 67.75,-24.88 29.25,-24.88"/>
</a>
</g>
</g>
<!-- Hostel&#45;&gt;LodgingBusiness -->
<g id="edge1" class="edge">
<title>Hostel&#45;&gt;LodgingBusiness</title>
<path fill="none" stroke="black" d="M48.5,-51.79C48.5,-59.25 48.5,-68.24 48.5,-76.69"/>
<polygon fill="none" stroke="black" points="45,-76.54 48.5,-86.54 52,-76.54 45,-76.54"/>
</g>
<!-- Invis -->
</g>
</svg>
